<?xml version="1.0" encoding="utf-8"?>
<!-- Generator: Adobe Illustrator 16.0.0, SVG Export Plug-In . SVG Version: 6.00 Build 0)  -->
<!DOCTYPE svg PUBLIC "-//W3C//DTD SVG 1.1//EN" "http://www.w3.org/Graphics/SVG/1.1/DTD/svg11.dtd">
<svg version="1.1" xmlns="http://www.w3.org/2000/svg" xmlns:xlink="http://www.w3.org/1999/xlink" x="0px" y="0px" width="1024px"
	 height="1024px" viewBox="0 0 1024 1024" enable-background="new 0 0 1024 1024" xml:space="preserve">
<g id="Background">
	<circle fill="#16A085" cx="512" cy="512" r="512"/>
</g>
<g id="Layer_2">
	<path fill="#34495E" d="M511.873,806.714c-121.363,0-215.5,69.626-277.448,135.577C314.395,993.985,409.691,1024,512,1024
		c102.355,0,197.692-30.042,277.685-81.78C727.788,876.289,633.629,806.714,511.873,806.714z"/>
	<path fill="#EFC2A3" d="M604.585,881c0,0-0.05-0.021-0.116,0.08C604.505,881.08,604.546,881,604.585,881z"/>
	<path fill="#EFC2A3" d="M418.87,881.08c-0.073-0.101-0.122-0.08-0.122-0.08C418.787,881,418.828,881.08,418.87,881.08z"/>
	<path fill="#EFC2A3" d="M577.131,702h-65.084h-65.842c0,0-6.865,174-26.373,179h-0.952c1.909,0,27.306,36.309,93.166,36.309
		c65.869,0,90.559-36.309,92.411-36.309h-0.956C583.998,876,577.131,702,577.131,702z"/>
	<path opacity="0.2" d="M511.219,759.749c48.289,0,67.612-28.219,67.612-28.219l-135.214-0.327
		C443.617,731.203,462.933,759.749,511.219,759.749z"/>
	<ellipse fill="#EFC2A3" cx="510.388" cy="478.377" rx="209.262" ry="267.387"/>
	<path fill="#FFFFFF" d="M511.726,673.67c55.853-0.116,77.021-42.278,77.021-42.278L434.509,613.46
		C434.509,613.46,455.879,673.783,511.726,673.67z"/>
	<path fill="#EFC2A3" d="M723.665,429.592c-13.566,1.869-15.535,31.4-15.535,31.4l2.856,81.875
		c9.62,21.059,61.633-51.703,38.042-99.529C742.234,429.558,729.156,428.836,723.665,429.592z"/>
	<path fill="#EFC2A3" d="M299.789,429.592c-5.488-0.755-18.57-0.034-25.366,13.746c-23.589,47.826,28.425,120.588,38.043,99.529
		l2.853-81.875C315.319,460.992,313.355,431.461,299.789,429.592z"/>
	<path d="M382.37,434.848c-14.092,0-25.516,11.424-25.516,25.515c0,14.093,11.424,25.519,25.516,25.519
		c14.091,0,25.521-11.426,25.521-25.519C407.891,446.272,396.461,434.848,382.37,434.848z"/>
	<circle fill="#FFFFFF" cx="370.356" cy="452.336" r="6.753"/>
	<path d="M382.437,407.667c-18.431,0.848-37.718,10.478-37.718,10.478l0.603,13.089c0,0,5.167-6.359,19.94-7.037
		c14.779-0.681,54.197,3.625,54.197,3.625l-0.497-10.905C418.963,416.917,400.866,406.82,382.437,407.667z"/>
	<circle cx="633.899" cy="460.365" r="25.517"/>
	<circle fill="#FFFFFF" cx="621.885" cy="452.336" r="6.753"/>
	<path d="M596.943,416.917l-0.499,10.905c0,0,39.421-4.306,54.198-3.625c14.775,0.678,19.942,7.037,19.942,7.037l0.601-13.089
		c0,0-19.286-9.629-37.714-10.478C615.038,406.82,596.943,416.917,596.943,416.917z"/>
	<path d="M511.889,206.496c-0.373,0-0.727-0.138-1.094-0.137c-0.373-0.001-0.73-0.086-1.097-0.086
		c-146.506,0-178.048,113.259-178.048,113.259L317.568,373h26.21c0,0,5.001-40.191,31.519-53.167l-31.519-0.264l167.275-0.328
		l167.445,0.107l-31.52,0.523c26.518,12.975,31.52,53.129,31.52,53.129h25.515l-14.081-53.502
		C689.932,319.498,658.387,206.496,511.889,206.496z"/>
</g>
</svg>
