<?xml version="1.0" encoding="utf-8"?>
<!-- Generator: Adobe Illustrator 16.0.0, SVG Export Plug-In . SVG Version: 6.00 Build 0)  -->
<!DOCTYPE svg PUBLIC "-//W3C//DTD SVG 1.1//EN" "http://www.w3.org/Graphics/SVG/1.1/DTD/svg11.dtd">
<svg version="1.1" id="Layer_1" xmlns="http://www.w3.org/2000/svg" xmlns:xlink="http://www.w3.org/1999/xlink" x="0px" y="0px"
	 width="93.313px" height="82.187px" viewBox="0 0 93.313 82.187" enable-background="new 0 0 93.313 82.187" xml:space="preserve">
<g>
	<path d="M40.625,50.375c1.708,1.5,3.021,3.23,3.938,5.188c0.916,1.959,1.375,4.355,1.375,7.188c0,5.709-2.136,10.375-6.406,14
		c-4.271,3.625-9.803,5.438-16.594,5.438c-3.584,0-6.886-0.646-9.906-1.938c-3.021-1.291-5.178-2.479-6.469-3.563l-1.25,4.063H0.625
		L0,59.312h4.313c0.333,1.631,1.041,3.535,2.125,5.709c1.083,2.174,2.396,4.139,3.938,5.895c1.625,1.84,3.572,3.387,5.844,4.641
		c2.271,1.254,4.822,1.881,7.656,1.881c4,0,7.083-0.91,9.25-2.734c2.166-1.822,3.25-4.432,3.25-7.828c0-1.75-0.344-3.26-1.031-4.531
		c-0.688-1.27-1.698-2.385-3.031-3.344c-1.375-0.957-3.063-1.822-5.063-2.594c-2-0.77-4.229-1.531-6.688-2.281
		c-1.959-0.582-4.136-1.385-6.531-2.406c-2.396-1.02-4.448-2.219-6.156-3.594c-1.834-1.457-3.334-3.25-4.5-5.375
		c-1.167-2.125-1.75-4.625-1.75-7.5c0-5.041,1.875-9.313,5.625-12.813s8.771-5.25,15.063-5.25c2.416,0,4.885,0.313,7.406,0.938
		c2.521,0.625,4.572,1.375,6.156,2.25l1.438-3.25h4.5l0.938,19.813h-4.313c-0.875-4.435-2.761-8.043-5.656-10.826
		c-2.896-2.782-6.428-4.174-10.594-4.174c-3.417,0-6.104,0.86-8.063,2.581c-1.959,1.721-2.938,3.798-2.938,6.231
		c0,1.875,0.322,3.438,0.969,4.688c0.646,1.25,1.614,2.313,2.906,3.188c1.25,0.834,2.822,1.615,4.719,2.344
		c1.896,0.729,4.239,1.552,7.031,2.468c2.75,0.875,5.344,1.896,7.781,3.063C37.031,47.667,39.041,48.958,40.625,50.375z"/>
	<path d="M93.313,77.875c-2.709,1.125-5.271,2.074-7.688,2.844c-2.417,0.771-5.375,1.156-8.875,1.156
		c-5.167,0-8.803-1.303-10.906-3.906c-2.104-2.604-3.156-6.281-3.156-11.031v-41.75H51.563v-6h11.375V0h11.375v19.188H92v6H74.438
		v34.437c0,2.584,0.094,4.74,0.281,6.469c0.188,1.73,0.635,3.24,1.344,4.531c0.666,1.209,1.666,2.125,3,2.75
		c1.333,0.625,3.125,0.938,5.375,0.938c1.041,0,2.572-0.094,4.594-0.281c2.021-0.188,3.447-0.426,4.281-0.719V77.875z"/>
</g>
</svg>
